<?xml version="1.0" encoding="utf-8"?>
<!-- Generator: Adobe Illustrator 28.1.0, SVG Export Plug-In . SVG Version: 6.00 Build 0)  -->
<svg version="1.1" id="Layer_1" xmlns="http://www.w3.org/2000/svg" xmlns:xlink="http://www.w3.org/1999/xlink" x="0px" y="0px"
	 width="151" height="44" viewBox="0 0" style="enable-background:new 0 0 151 44;" xml:space="preserve">
<style type="text/css">
	.st0{fill-rule:evenodd;clip-rule:evenodd;fill:#FFFFFF;}
	.st1{fill:#378928;}
	.st2{fill:#F4ED67;}
	.st3{fill:#EF6846;}
	.st4{fill:#FFFFFF;}
	.st5{fill:#F99A10;}
</style>
<path class="st0" d="M22.1,33.2v-7.2c0-0.6-0.5-1.1-1.1-1.1h-5.8c-0.6,0-1.1,0.5-1.1,1.1v7.2c0,0.1,0,0.1,0,0.2h8
	C22.1,33.3,22.1,33.3,22.1,33.2z"/>
<g>
	<path class="st1" d="M16.7,35.7c-0.4,0-0.7,0-1.1,0c-1.1,0.1-2.1,0.2-3.2,0.4c-1.1,0.1-2.1-0.1-3-0.7c-0.3-0.2-0.5-0.6-0.7-1
		c-0.1-0.2,0-0.4,0.1-0.6c0.5-0.7,1.2-1.1,2-1.4c1.4-0.4,2.9-0.7,4.4-0.8c1.1-0.1,2.2-0.3,3.4-0.3c1.3,0,1.9,0.4,2.4,1.5
		c0.3,0.6,0.5,1.2,0.4,1.8c-0.2,0.9-0.4,1.9-0.7,2.8c-0.4,1.3-0.6,1.9-0.7,3.3c0,0.6,0,1.1-0.3,1.6c0,0.1-0.1,0.2,0,0.3
		c0.1,0.3-0.1,0.5-0.4,0.7c-0.2,0.1-0.4,0.3-0.5,0.4c0,0-0.7,0.3-1.1,0c-0.2-0.1-0.3-0.2-0.5-0.2c-0.7-0.2-1.1-0.8-1-1.4
		c0.1-0.7,0.3-0.8,0.3-1.5c0-0.3,0-0.6,0-1c-0.3,0-0.7,0-1,0.1c-1.5,0.3-3,0.4-4.5,0.3c-0.8-0.1-1.5,0-2.3,0
		c-1.6-0.1-3.1-0.5-4.3-1.5c-0.2-0.1-0.4-0.3-0.5-0.4c-1-0.8-1.5-1.8-1.5-3c0-0.7,0-1.3,0.2-2c0.1-0.4,0.4-0.8,0.6-1.1
		c0.1-0.2,0.3-0.5,0.5-0.7c0.8-0.9,1.3-1.9,2.3-2.6c0.7-0.6,1.2-1.2,1.9-1.8c1.3-1.1,2.7-2.2,4.4-2.9c0.7-0.2,1.4-0.3,2-0.5
		c0.1,0,0.2,0,0.2,0c0.5-0.1,0.9-0.2,1.3,0.1c0.4,0.2,0.7,0.5,1,0.8c0.7,0.7,0.8,1.6,0.9,2.5c0,0.3,0.1,0.6,0.1,0.8
		c0,0.2-0.1,0.3-0.2,0.5c0,0.1-0.1,0.2-0.1,0.3c0,0.3-0.1,0.3-0.4,0.3c-0.2-0.1-0.5-0.1-0.7-0.2c-0.1,0-0.2-0.1-0.3-0.1
		c-0.5-0.4-1-0.9-1.5-1.3c-0.2-0.2-0.4-0.3-0.7-0.2c-0.2,0.1-0.5,0.2-0.7,0.3c-0.7,0.5-1.5,0.9-2.2,1.5c-0.8,0.6-1.6,1.3-2.5,2
		c-1,0.8-1.7,1.7-2.4,2.8c-0.1,0.2-0.2,0.4-0.4,0.6c-0.3,0.4-0.5,0.9-0.5,1.4c0,0.2,0.1,0.4,0.2,0.5c0.6,0.8,1.6,1.1,2.6,1.3
		c1.3,0.4,2.7,0.5,4.1,0.4c0.9,0,1.8-0.2,2.6-0.5c0.6-0.2,1.1-0.7,1.5-1.2C16.7,35.9,16.7,35.8,16.7,35.7z"/>
	<path class="st1" d="M127.8,34c1,0.7,2.1,1.3,3,2.1c0.8,0.6,1.5,1.3,1.4,2.4c-0.1,0.6-0.4,1.2-0.9,1.5c-0.4,0.3-1,0.5-1.6,0.6
		c-0.6,0.1-1.1,0-1.6-0.4c-0.2-0.2-0.5-0.3-0.7-0.4c-0.2-0.2-0.4-0.4-0.6-0.6c-0.1-0.1-0.3-0.3-0.4-0.4c-1-0.7-2-1.4-3-2.2
		c-0.3-0.2-0.5-0.5-0.8-0.7c-0.1-0.1-0.2-0.1-0.3-0.2c-0.1,0.1-0.2,0.2-0.2,0.3c0,0.7,0,1.5,0.1,2.2c0.1,0.8,0.1,1.5-0.4,2.2
		c-0.1,0.1-0.1,0.3-0.1,0.5c0,0.3-0.1,0.4-0.4,0.4c-0.1,0-0.2,0-0.3,0.1c-0.8,0.4-1.4,0-2-0.3c-0.2-0.1-0.3-0.2-0.5-0.3
		c-0.1-0.1-0.2-0.2-0.2-0.3c-0.1-0.4-0.2-0.9-0.3-1.3c-0.1-0.3-0.1-0.6-0.1-0.9c0-1.3,0-2.7,0-4c0-0.5-0.1-1.1-0.2-1.6
		c-0.1-0.5,0.2-0.9,0.4-1.4c0.2-0.3,0.5-0.5,0.9-0.5c0.3,0,0.5-0.2,0.5-0.5c0-0.7,0.1-1.4,0.2-2.1c0-0.1-0.1-0.2-0.2-0.3
		c-0.9-0.6-1.2-1.3-0.8-2.4c0.2-0.6,0.6-1.2,1-1.8c0.1-0.2,0.3-0.3,0.6-0.4c0.5-0.1,1-0.3,1.5-0.6c1.6-0.7,3.2-0.5,4.7,0.1
		c0.8,0.4,1.6,0.8,2.4,1.2c0.9,0.4,1.1,1.2,1.1,2c0,1.4-0.1,2.9-0.2,4.3c0,0.4-0.3,0.7-0.4,1.1c0,0,0,0.1,0,0.1
		C129.2,32.6,128.6,33.4,127.8,34z M123.4,31.1c1.2-0.4,1.8-1.3,2.3-2.2c0.1-0.2,0-0.4-0.2-0.6c-0.4-0.2-0.5-0.5-0.6-0.8
		c0-0.2-0.1-0.5-0.1-0.7c0-0.2-0.2-0.3-0.4-0.2c-0.3,0.2-0.6,0.5-0.6,0.8C123.7,28.7,123.6,29.9,123.4,31.1z M131.4,37.9
		c0-0.4-0.6-1.1-1-1.4c-0.5-0.3-0.9-0.6-1.3-0.9c-0.1-0.1-0.2-0.2-0.3-0.3c0,0,0,0-0.1,0.1C129.4,36.3,130.4,37.1,131.4,37.9z
		 M122.8,30.7c0,0,0.1,0,0.1,0c0-0.1,0.1-0.3,0.1-0.4c0.1-0.6,0.1-1.2,0.2-1.8c0-0.1,0-0.2,0-0.3c0-0.1-0.1-0.2-0.2-0.2
		c0,0.1-0.1,0.2-0.1,0.2c0,0.6-0.1,1.2-0.1,1.8C122.8,30.2,122.8,30.4,122.8,30.7z M122.7,23.1c0.6,0.4,1.1,0.2,1.7-0.1
		C123.9,22.8,123,22.9,122.7,23.1z M121.7,39.8c0.3-0.4,0.3-1.4,0-1.7C121.7,38.6,121.7,39.2,121.7,39.8z M127.2,33.7
		c-0.4-0.2-0.7-0.2-1,0c-0.1,0-0.1,0.2-0.2,0.3c0.1,0,0.2,0.1,0.3,0.1C126.6,34,126.9,33.9,127.2,33.7z M119.3,26.6
		c-0.1,0.4,0.3,0.8,0.7,0.9C120,27.1,119.9,26.9,119.3,26.6z M118.9,31.4c0,0,0,0.1,0,0.1c0.1,0,0.3,0.1,0.4,0.1
		c0.1,0,0.2-0.1,0.2-0.2c0,0-0.1-0.2-0.1-0.1C119.2,31.3,119.1,31.4,118.9,31.4z M126.8,24.9c0,0,0.1,0,0.1-0.1
		c0-0.1-0.1-0.3-0.2-0.3c-0.1,0-0.3,0-0.4,0.1c0,0,0,0.1,0,0.1C126.5,24.8,126.7,24.9,126.8,24.9z M130.4,39.8
		C130.4,39.8,130.4,39.9,130.4,39.8c0.2,0,0.4-0.1,0.6-0.2c0,0,0-0.1-0.1-0.1C130.7,39.6,130.6,39.7,130.4,39.8z"/>
	<path class="st1" d="M115.4,28.2c-0.1,1.3-0.2,2.5-0.2,3.8c0,0.7-0.2,1.4-0.2,2.1c-0.1,0.7-0.1,1.4-0.1,2.1
		c-0.1,0.7-0.3,1.5-0.8,2.1c-0.4,0.6-1.2,1-1.9,1.3c-0.6,0.2-1.2,0.4-1.8,0.4c-0.4,0-0.8,0.1-1.2,0.2c-0.7,0.2-1.5,0.2-2.2,0.1
		c-0.5,0-1.1,0-1.6-0.1c-0.8,0-1.5,0-2.3-0.1c-0.1,0-0.3-0.1-0.4-0.1c-0.4-0.2-0.6-1.1-0.5-1.4c0.1-0.2,0.1-0.4,0.1-0.7
		c0.2-1.2,0.3-2.4,0.5-3.5c0-0.3,0-0.7,0-1c0-0.1,0-0.1,0-0.2c0.2-2.1,0.4-4.2,0.6-6.3c0.1-1.1,0.2-2.2,0.4-3.3
		c0-0.1,0.2-0.2,0.3-0.2c1,0,2-0.3,3-0.1c0.3,0.1,0.5,0.2,0.7,0.4c0,0,0,0,0,0c0.8,1.1,0.8,0.9,0.5,2.1c-0.3,1.3-0.3,2.6-0.5,3.9
		c-0.1,1-0.3,2-0.4,3.1c-0.1,0.8,0,1.6,0,2.3c0,0.2,0.1,0.4,0.4,0.3c0.2,0,0.4,0.1,0.6,0c0.4-0.1,0.8-0.3,0.8-0.7
		c0.1-0.8,0.3-1.6,0.4-2.4c0.1-1.1,0.2-2.3,0.4-3.4c0.2-1.3,0.4-2.7,0.5-4c0.1-0.4,0.1-0.8,0.2-1.2c0.3-0.8,0.7-1,1.6-1
		c0.4,0,0.9,0,1.3,0c1.1,0,1.8,0.6,1.8,1.6C115.4,25.7,115.4,27,115.4,28.2C115.4,28.2,115.4,28.2,115.4,28.2z M112.1,23.3
		C112.1,23.3,112.1,23.3,112.1,23.3c0.1,0.1,0.2,0.1,0.3,0.2c0.4,0.2,0.9,0.3,1.3,0.5c0.4,0.1,0.7,0.4,0.8,0.8
		c0.1,0.3,0.1,0.5,0.2,0.8c0,0.1,0.1,0.1,0.1,0.2c0,0,0.1,0,0.1,0c-0.1-0.5-0.1-1-0.2-1.5c-0.1-0.4-0.5-0.7-1-0.8
		C113.2,23.3,112.7,23.3,112.1,23.3z M105.7,23.7c0.6,0.2,1.2,0.4,1.8,0.6C107.3,23.7,106.4,23.5,105.7,23.7z M104.7,23.9
		c0,0,0-0.1,0-0.1c-0.2,0-0.3,0-0.6-0.1c0.1,0.1,0.1,0.3,0.2,0.3C104.4,24,104.5,23.9,104.7,23.9z M114.8,31.1c0,0-0.1,0-0.1,0
		c0,0.2-0.1,0.4-0.1,0.7c0,0,0.1,0,0.1,0C114.7,31.6,114.7,31.4,114.8,31.1z"/>
	<path class="st1" d="M72,32.3c0.1-0.7,0.2-1.3,0.3-1.9c0.2-1.2,0.3-2.4,0.5-3.6c0-0.4,0-0.8,0-1.3c0-0.2,0-0.4,0-0.6
		c0.1-0.4,0.3-0.6,0.8-0.7c0.3,0,0.6,0,0.8,0c0.9,0.1,1.3,0.7,1.5,1.4c0.2,0.8,0.3,1.6,0.4,2.4c0,0.4-0.1,0.8-0.1,1.2
		c0,1.4-0.1,2.7-0.1,4.1c-0.1,1.1-0.2,2.2-0.2,3.3c0,0.6-0.1,1.1,0.2,1.7c0,0.1,0,0.1,0,0.2c-0.2,0.7-0.1,1.5-0.7,2.2
		c-0.2,0.3-0.4,0.5-0.8,0.5c-0.1,0-0.2,0-0.3,0.1c-0.4,0.3-0.8,0.2-1.2,0c-0.3-0.2-0.7-0.3-1-0.5c-0.2-0.1-0.3-0.3-0.4-0.4
		c-0.1-0.4-0.1-0.8-0.1-1.2c0-0.3,0-0.5-0.4-0.6c-0.1,0-0.3-0.2-0.3-0.3c0-1.2-0.8-2.2-1.5-3.1c-0.3-0.3-0.6-0.7-0.9-1
		c-0.2-0.2-0.4-0.4-0.8-0.4c-0.1,0.8-0.3,1.6-0.4,2.3c-0.1,0.8-0.1,1.5-0.2,2.3c-0.1,0.6-0.3,1.2-0.5,1.8c-0.1,0.4-0.5,0.5-1,0.5
		c-0.7,0-1.4-0.1-2.1-0.4c-0.1-0.1-0.3-0.2-0.4-0.3c-0.3-0.7-0.5-1.4-0.4-2.1c0.2-1.3,0.4-2.6,0.6-3.9c0.1-0.7,0.1-1.4,0.1-2.1
		c0.1-1.2,0.2-2.4,0.2-3.6c0-0.7,0.1-1.4,0.1-2.1c0-0.3,0.1-0.6,0.2-1c0-0.1,0-0.1,0.1-0.2c0.4-0.1,0.4-0.4,0.6-0.7
		c0.4-0.4,1.1-0.6,1.7-0.5c0.3,0.1,0.6,0.1,0.8,0.3c0.6,0.2,1,0.7,1.1,1.3c0.2,1.1,0.3,2.1,0.5,3.2c0.1,0.8,0.7,1.5,1.3,2.1
		c0.1,0.1,0.2,0.2,0.3,0.3C71.2,31.5,71.5,31.9,72,32.3z M64.4,27.2c0.1-0.5,0.2-0.9,0.3-1.3C64.4,26,64.3,26.7,64.4,27.2z
		 M74.9,25.1c-0.1-0.3-0.8-0.5-1.2-0.3C74.1,24.9,74.5,25,74.9,25.1z M67.4,24.8c-0.3-0.3-1-0.5-1.3-0.4
		C66.6,24.6,67,24.7,67.4,24.8z M69.2,30.1c-0.2,0.5,0,0.6,0.4,0.6C69.5,30.4,69.3,30.3,69.2,30.1z M68.2,33.4
		c-0.2-0.4-0.5-0.5-0.7-0.2C67.8,33.3,68,33.4,68.2,33.4z M69.9,35c0-0.4-0.1-0.5-0.4-0.5C69.7,34.7,69.8,34.8,69.9,35z"/>
	<path class="st1" d="M26.8,36c-0.2,0.5-0.3,0.9-0.2,1.4c0.1,0.8,0.2,1.7,0.2,2.5c0,0.9-0.6,1.4-1.7,1.4c-0.1,0-0.1,0-0.2,0
		c-0.4,0-0.9,0-1.2-0.3c-0.5-0.5-0.9-1-0.7-1.7c0.2-0.7,0.1-1.4,0.1-2.2c0-0.3-0.1-0.7,0-1c0.1-0.4-0.1-0.8-0.4-1.2
		c-0.8-0.9-0.7-1.9-0.1-2.9c0.1-0.2,0.4-0.4,0.7-0.4c0.4-0.1,0.6-0.3,0.7-0.6c0.2-0.7,0.3-1.4,0.5-2.1c0.1-0.3-0.1-0.4-0.2-0.7
		c-0.2-0.3-0.4-0.6-0.6-0.9c-0.1-0.1-0.1-0.2-0.2-0.3c-0.3-0.2-0.3-0.5-0.2-0.7c0.1-0.2,0.1-0.4,0.2-0.7c0.1-0.5,0.3-0.8,0.7-1.2
		c0.2-0.2,0.5-0.3,0.8-0.2c0.1,0,0.3,0,0.4,0c0.9-0.4,1.9-0.4,2.9-0.3c0.5,0.1,1,0.1,1.6,0.2c0.6,0.1,1.1,0.3,1.5,0.5
		c0.5,0.3,1,0.6,1.3,1c0.6,1.1,1.2,2.3,1.1,3.6c0,0.2,0.1,0.5,0.1,0.7c0,0.9-0.2,1.7-0.8,2.5c-0.2,0.3-0.4,0.6-0.6,0.9
		c-0.2,0.3-0.3,0.6-0.5,0.9c0.4,0.2,0.8,0.5,1.1,0.7c0.7,0.5,1.3,1,2,1.5c0.1,0.1,0.3,0.2,0.4,0.3c0.5,0.4,0.6,0.9,0.4,1.5
		c-0.2,0.6-0.4,1.1-0.9,1.6c-0.2,0.2-0.3,0.5-0.5,0.7c-0.1,0.1-0.3,0.2-0.4,0.2c-0.9-0.1-1.7-0.3-2.5-0.4c-0.3-0.1-0.2-0.3-0.1-0.4
		c0.2-0.2,0.1-0.3-0.1-0.5c-0.4-0.3-0.8-0.7-1.2-1c-1-0.8-2.1-1.6-3.1-2.3C26.9,36.1,26.9,36,26.8,36z M27.4,31.7
		c1-0.4,2.3-1.6,2.3-2.7c0-0.5-0.3-1-0.9-1.1c-0.2-0.1-0.3,0-0.4,0.2c-0.1,0.4-0.2,0.7-0.3,1.1c-0.1,0.3,0.1,0.6-0.3,0.8
		c0,0,0,0.1,0,0.1C27.7,30.6,27.6,31.1,27.4,31.7z M29.8,37.7C29.9,37.7,29.9,37.7,29.8,37.7C29,36.8,28,36,26.8,35.5
		C27.8,36.2,28.8,37,29.8,37.7z M23.4,35c0-0.5-0.1-0.7-0.6-0.8C23,34.5,23.2,34.7,23.4,35z M31.1,38.7C31,38.7,31,38.7,31.1,38.7
		c0.1,0.2,0.3,0.4,0.5,0.5c0,0,0.1-0.1,0.1-0.1C31.4,38.9,31.2,38.8,31.1,38.7z"/>
	<path class="st1" d="M55.1,36.6c0.4,0,0.8,0,1.3-0.1c0.3,0,0.6-0.2,0.8-0.3c0.6-0.3,1-0.2,1.3,0.3c0.4,0.8,0.6,1.7,0.7,2.5
		c0,0.4-0.1,0.7-0.6,0.9c-1.8,0.9-3.7,1-5.6,0.6c-0.4-0.1-0.9-0.2-1.3-0.3c-1.2-0.4-1.8-1.3-2.3-2.2c0,0,0-0.1-0.1-0.1
		c-0.2-0.8-0.6-1.5-0.7-2.3c-0.1-0.7,0.1-1.4,0.2-2.1c0.1-0.6,0.4-1.2,0.6-1.8c0.3-1,0.7-2,1-3c0.2-0.6,0.3-1.2,0.8-1.7
		c0.1-0.1,0.1-0.3,0.2-0.4c0.2-0.2,0.3-0.4,0.5-0.6c0.5-0.4,1.1-0.6,1.8-0.7c0.9-0.2,1.7-0.4,2.6-0.5c1-0.2,2.1-0.4,3.1-0.5
		c0.6-0.1,1.2-0.1,1.8-0.1c0.4,0,0.7,0.1,1,0.4c0.3,0.3,0.7,0.6,0.9,0.9c0.4,0.6,0.3,1.3,0.1,2c-0.1,0.2-0.3,0.4-0.6,0.4
		c-0.9,0.3-1.8,0.7-2.7,0.9C59,29,58,29.1,57.1,29.2c-0.1,0-0.3-0.1-0.4-0.1c-0.3-0.2-0.6-0.1-1,0c-0.7,0.3-0.8,0.8-1.2,1.3
		c-0.2,0.2-0.1,0.3,0.2,0.3c0.7-0.1,1.4-0.2,2-0.2c0.1,0,0.2-0.1,0.3-0.2c0.2-0.3,0.3-0.4,0.8-0.3c0.3,0.1,0.7,0.1,1,0.1
		c0.7-0.1,1.3,0.1,1.5,0.7c0,0.1,0.1,0.2,0.2,0.3c0.3,0.2,0.5,0.5,0.5,0.8c0.1,0.3,0.2,0.7,0.2,1c0.1,0.5,0,0.8-0.5,1
		c-0.6,0.2-1.2,0.3-1.8,0.5c-0.9,0.2-1.8,0.5-2.8,0.7c-0.9,0.2-1.9,0.3-2.8,0.5c-0.1,0-0.2,0-0.4,0c-0.3,0-0.4,0.1-0.4,0.4
		c0,0.2,0,0.4,0.3,0.5C53.5,36.6,54.3,36.6,55.1,36.6z M52.8,36.7c0,0-0.1,0.1-0.1,0.1c0.1,0.1,0.2,0.2,0.4,0.2
		c0.7,0.2,1.4,0.3,2.2,0.5c0.2,0,0.3,0,0.3-0.2c0-0.1,0.1-0.3-0.2-0.3C54.4,37,53.6,37,52.8,36.7z M62.7,26.1
		C62.7,26.1,62.8,26.1,62.7,26.1c0-0.2,0-0.3-0.1-0.4c-0.3-0.3-0.6-0.6-1-0.9c-0.3-0.2-0.6-0.2-1-0.1C61.4,25.1,62.3,25.3,62.7,26.1
		z M58.2,37.1c0-0.3-0.1-0.6-0.3-0.6c-0.2-0.1-0.5,0.1-0.7,0.2c0,0,0,0.1,0,0.1C57.5,36.9,57.8,37,58.2,37.1z M51.3,39.4
		C51.3,39.4,51.3,39.5,51.3,39.4c0.5,0.3,1.1,0.6,1.7,0.6C52.4,39.8,51.9,39.6,51.3,39.4z"/>
	<path class="st1" d="M91.2,29.3c-0.4,0-0.7,0-1,0c-1,0-1.9,0.1-2.9,0.1c-0.6,0-1.2,0-1.7-0.5c0,0-0.1-0.1-0.1-0.1
		c-0.6-0.2-0.8-0.7-0.8-1.2c0,0,0-0.1,0-0.1c-0.5-0.8,0.1-1.5,0.4-2.2c0.1-0.2,0.3-0.3,0.6-0.3c0.8-0.1,1.6-0.2,2.3-0.4
		c0.2,0,0.4-0.1,0.7-0.1c0.9,0,1.8-0.2,2.6-0.4c1-0.2,2-0.2,3-0.3c0.8,0,1.7,0,2.5-0.2c0.7-0.1,1.3-0.1,2-0.1c0.3,0,0.5,0,0.8,0
		c1.1,0,1.3,0.3,1.5,1.2c0.1,0.5,0.2,1,0.2,1.5c0,0.5,0,1-0.2,1.4c-0.1,0.5-0.6,0.6-1.1,0.8c-1,0.2-2,0.5-3,0.7
		c-0.6,0.1-0.9,0.4-0.9,1c0,1.2,0,2.4,0,3.6c0.1,1.8,0.2,3.6,0.3,5.4c0,0.6-0.2,1-0.8,1.2c-0.9,0.3-1.7,0.4-2.7,0.3
		c-0.4-0.1-0.9-0.1-1.3-0.1c-0.5,0-0.7-0.2-0.8-0.6c-0.1-0.3-0.1-0.5-0.1-0.8c0-1.1,0.1-2.2,0.1-3.2c0-0.9,0-1.8-0.3-2.7
		c-0.2-0.8-0.1-1.6,0-2.3c0-0.3,0.3-0.6,0.4-1C91,29.7,91.1,29.6,91.2,29.3z M100.6,25c0.1-0.6-0.3-1.2-0.9-1
		C100,24.4,100.3,24.7,100.6,25z"/>
	<path class="st1" d="M134.6,40.3c-0.3,0-0.7,0-1.1-0.1c-0.6-0.1-0.8-0.4-0.9-1c-0.1-0.9-0.2-1.7-0.3-2.6c0-0.2-0.1-0.4,0-0.5
		c0.2-0.8-0.1-1.6-0.1-2.3c0-0.8,0.1-1.7,0.1-2.5c0.1-0.8,0.2-1.6,0.2-2.4c0-0.6,0.1-1.1,0.5-1.6c0.1-0.1,0.1-0.3,0.2-0.5
		c0.1-0.3,0.3-0.6,0.5-0.8c0-0.1,0.1-0.1,0.1-0.2c0-0.4,0.3-0.4,0.6-0.5c0.3-0.1,0.6-0.3,1-0.4c0.8-0.3,1.6-0.4,2.4-0.6
		c1.6-0.3,3.1-0.7,4.7-1c0.8-0.1,1.6-0.2,2.4,0.1c0.3,0.1,0.5,0.3,0.7,0.5c0.4,0.7,0.7,1.4,1,2.1c0.1,0.3,0.1,0.6-0.1,0.9
		c-0.4,0.8-1.2,1.1-2.1,1.2c-0.7,0.1-1.3,0.1-2,0.2c-0.4,0.1-0.9,0.2-1.3,0.4c-0.7,0.5-1.6,0.6-2.5,0.7c-0.7,0.1-1,0.4-1.3,0.9
		c-0.2,0.4-0.1,0.6,0.4,0.5c0.6-0.1,1.1-0.2,1.7-0.3c1.1-0.2,2.2-0.5,3.3-0.4c0.7,0,0.9,0.2,1.1,0.8c0.1,0.2,0.2,0.4,0.3,0.6
		c0.4,0.5,0.3,1,0.1,1.5c-0.1,0.2-0.3,0.4-0.5,0.5c-0.2,0.1-0.5,0.2-0.7,0.3c-1,0.3-1.9,0.5-2.9,0.8c-0.5,0.1-1.1,0.2-1.6,0.3
		c-0.5,0.1-0.9,0.2-1.4,0.3c-0.2,0-0.3,0.2-0.3,0.3c0.1,0.7,0.1,1.4,0.2,2.2c0,0.5,0.1,1.1,0.1,1.6c0,0.7-0.3,0.9-1.1,1
		C135.6,40.2,135.1,40.3,134.6,40.3z M137.2,31.2c0.3,0.3,3.4,0,3.9-0.5c-0.1,0-0.2,0-0.3,0c-0.5,0.1-1,0.2-1.4,0.3
		C138.7,31.1,138,31.4,137.2,31.2z M143.9,23.5c0.5,0.3,1,0.5,1.5,0.8C145.3,23.7,144.7,23.4,143.9,23.5z M142.2,30.5
		c0.4,0.2,0.8,0.3,1.2,0.5C143.4,30.5,143.1,30.3,142.2,30.5z"/>
	<path class="st1" d="M41.7,40.7c-0.6-0.1-1.3-0.1-1.9-0.2c-0.7-0.2-1.4-0.4-1.9-0.9c-1.5-1.3-1.9-2.9-1.7-4.6
		c0.1-0.9,0.4-1.9,0.6-2.8c0.1-0.6,0.3-1.2,0.4-1.7c0-0.1,0-0.3-0.1-0.4c-1-0.9-0.9-2.1-0.3-2.9c0.2-0.3,0.4-0.5,0.7-0.8
		c0.2-0.2,0.5-0.4,0.8-0.4c1.1,0,2.2-0.3,3.2-0.5c0.4-0.1,0.8-0.3,1.2-0.4c1.3-0.5,2.6-0.7,4-0.8c0.3,0,0.5-0.1,0.8-0.1
		c0.5-0.1,0.9,0.1,1.2,0.4c0.9,0.8,1.3,1.8,1.2,2.9c0,0.3-0.3,0.6-0.7,0.6c-0.6,0.1-1.3,0.2-1.9,0.3c-0.5,0.1-0.9,0.2-1.4,0.3
		c-0.8,0.2-1.5,0.4-2.3,0.6c-0.8,0.1-1.5,0.4-2.2,0.7c-0.3,0.2-0.6,0.9-0.4,1.2c0.1,0.1,0.2,0.2,0.4,0.2c0.3,0,0.6,0,0.9-0.1
		c1.3-0.3,2.6-0.5,3.9-0.5c0.7,0,0.9,0.1,1.2,0.7c0.1,0.2,0.2,0.5,0.4,0.7c0.3,0.5,0.3,1.1,0.1,1.7c-0.1,0.4-0.6,0.6-1.1,0.6
		c-0.7,0.1-1.3,0.2-2,0.2c-1.2,0-2.3,0.3-3.4,0.4c-0.7,0.1-1.1,0.3-1.3,0.9c-0.2,0.7-0.2,0.6,0.4,0.8c0.5,0.2,0.9,0.2,1.4,0.1
		c0.6-0.1,1.3-0.2,2-0.3c0.1,0,0.1,0,0.2,0c0.4-0.3,0.7-0.1,1,0.1c0.4,0.3,0.7,0.5,0.8,1c0.1,0.6,0.1,1.2-0.2,1.7
		c-0.3,0.5-0.9,0.8-1.4,0.9C43.5,40.6,42.6,40.7,41.7,40.7z M45.2,28.6c1-0.4,2.1-0.5,3.1-0.7C47.2,28,46.1,27.8,45.2,28.6z
		 M48.7,25.2c-0.3-0.6-1-0.8-1.4-0.6C47.7,24.8,48.2,25,48.7,25.2z M47,31.7c-0.1-0.5-0.6-0.6-1.3-0.4C46.2,31.4,46.5,31.5,47,31.7z
		 M43.9,37.1c0.4,0.1,0.8,0.3,1.3,0.4C44.9,37.1,44.4,37,43.9,37.1z M41.1,29.8c0,0,0-0.1,0-0.1c-0.1,0-0.3,0-0.4,0
		c-0.1,0,0,0.2,0,0.3c0,0,0.1,0,0.1,0C40.9,30,41,29.9,41.1,29.8z"/>
	<path class="st2" d="M55.9,22.6c-1-0.3-1.9-0.6-2.6-1.2c-0.6-0.4-0.8-1-0.7-1.6c0.4-2.6,1.3-5,2.8-7.2c3-4.6,7.3-8.1,12.9-10.2
		c1.7-0.6,3.5-1.1,5.3-1.3c0.4,0,0.7,0,1.1,0c0.6,0,1.1,0.2,1.4,0.7c0.4,0.7,0.7,1.4,1.1,2c0.2,0.4-0.2,0.3-0.4,0.3
		c-1.8,0-3.5,0.2-5.3,0.6c-3.2,0.8-5.9,2.3-8.4,4.2c-3.8,3-6.3,6.7-7,11.2c-0.1,0.6-0.1,1.3-0.1,2C55.9,22.2,55.9,22.3,55.9,22.6z"
		/>
	<path class="st3" d="M85.6,14.6c0,1,0,1.9,0,2.8c0,0.1-0.3,0.2-0.4,0.2c-1.6,0-3.1,0-4.7,0c-0.4,0-0.6,0.1-0.6,0.5
		c0,1.4-0.1,2.8-0.1,4.2c0,0.3-0.1,0.4-0.5,0.4c-0.9,0-1.8,0-2.7,0c-0.4,0-0.5-0.1-0.5-0.5c0-1.4-0.1-2.8-0.1-4.3
		c0-0.4-0.1-0.4-0.5-0.4c-1.8,0-3.5,0-5.3,0c-0.4,0-0.5-0.1-0.5-0.4c0-0.7,0.1-1.5,0-2.3c0-0.3,0.1-0.4,0.4-0.4
		c1.8,0,3.6-0.1,5.4-0.1c0.6,0,0.6,0,0.6-0.6c0-1.3,0-2.6,0-3.9c0-0.5,0-0.5,0.6-0.5c0.8,0,1.6,0.1,2.4,0c0.5,0,0.6,0.1,0.6,0.5
		c0,1.4,0.1,2.7,0.1,4.1c0,0.3,0.1,0.5,0.5,0.5c1.6,0,3.2,0,4.7,0C85.3,14.6,85.4,14.6,85.6,14.6z"/>
	<path class="st4" d="M69.2,30.1"/>
	<path class="st4" d="M69.5,34.6"/>
	<path class="st4" d="M42.1,31.9c0,0,0-0.1,0-0.1"/>
	<path class="st4" d="M43.3,31.5C43.3,31.5,43.3,31.6,43.3,31.5"/>
	<path class="st5" d="M77.3,3.8C77.7,3,78,2.2,78.7,1.5c0.5-0.5,1.1-0.7,1.9-0.6c2.9,0.3,5.7,1.1,8.2,2.4C94,6,98,9.7,100.3,14.7
		c0.7,1.5,1.2,3.1,1.5,4.7c0,0.3,0,0.7,0,1c0,0.5-0.3,1-0.8,1.2c-0.8,0.3-1.5,0.6-2.3,0.9c-0.4,0.2-0.4-0.1-0.4-0.4
		c0-1.6-0.2-3.1-0.7-4.6c-0.9-2.8-2.6-5.2-4.8-7.3C89.4,6.8,85.2,4.7,80.1,4c-0.7-0.1-1.5-0.1-2.2-0.1C77.7,3.9,77.6,3.9,77.3,3.8z"
		/>
</g>
</svg>
